<svg width="22" height="18" viewBox="0 0 22 18" fill="none" xmlns="http://www.w3.org/2000/svg">
<path d="M11 2.77404C12.2653 1.93338 13.9835 1.41663 15.875 1.41663C17.7676 1.41663 19.4847 1.93338 20.75 2.77404V16.8574C19.4847 16.0167 17.7676 15.5 15.875 15.5C13.9835 15.5 12.2653 16.0167 11 16.8574M11 2.77404V16.8574V2.77404ZM11 2.77404C9.73467 1.93338 8.0165 1.41663 6.125 1.41663C4.2335 1.41663 2.51533 1.93338 1.25 2.77404V16.8574C2.51533 16.0167 4.2335 15.5 6.125 15.5C8.0165 15.5 9.73467 16.0167 11 16.8574V2.77404Z" stroke="#26C16E" stroke-width="2" stroke-linecap="round" stroke-linejoin="round"/>
</svg>
