<svg width="28" height="28" viewBox="0 0 28 28" fill="none" xmlns="http://www.w3.org/2000/svg">
<path fill-rule="evenodd" clip-rule="evenodd" d="M8.68466 0.666687H4.63434C2.44121 0.666687 0.666687 2.45661 0.666687 4.66071V8.74619C0.666687 10.9494 2.44159 12.7402 4.63434 12.7402H8.68466C10.8774 12.7402 12.6523 10.9494 12.6523 8.74619V4.66071C12.6523 2.45661 10.8778 0.666687 8.68466 0.666687ZM4.63435 2.52714H8.68466C9.84667 2.52714 10.7919 3.48052 10.7919 4.6607V8.74618C10.7919 9.92558 9.84618 10.8797 8.68466 10.8797H4.63435C3.47284 10.8797 2.52716 9.92558 2.52716 8.74618V4.6607C2.52716 3.48052 3.47234 2.52714 4.63435 2.52714ZM23.367 0.666687H19.3154C17.1223 0.666687 15.3477 2.45661 15.3477 4.66071V8.74619C15.3477 10.9494 17.1226 12.7402 19.3154 12.7402H23.367C25.5587 12.7402 27.3334 10.9491 27.3334 8.74619V4.66071C27.3334 2.45687 25.5591 0.666687 23.367 0.666687ZM19.3154 2.52714H23.367C24.5278 2.52714 25.4729 3.48066 25.4729 4.6607V8.74618C25.4729 9.92544 24.5273 10.8797 23.367 10.8797H19.3154C18.1539 10.8797 17.2082 9.92558 17.2082 8.74618V4.6607C17.2082 3.48052 18.1534 2.52714 19.3154 2.52714ZM4.63434 15.2598H8.68466C10.878 15.2598 12.6523 17.05 12.6523 19.2551V23.3393C12.6523 25.5434 10.8778 27.3333 8.68466 27.3333H4.63434C2.44121 27.3333 0.666687 25.5434 0.666687 23.3393V19.2551C0.666687 17.05 2.44095 15.2598 4.63434 15.2598ZM8.68466 17.1203H4.63435C3.4722 17.1203 2.52716 18.0738 2.52716 19.2551V23.3393C2.52716 24.5195 3.47234 25.4729 4.63435 25.4729H8.68466C9.84667 25.4729 10.7919 24.5195 10.7919 23.3393V19.2551C10.7919 18.0738 9.84681 17.1203 8.68466 17.1203ZM23.367 15.2598H19.3154C17.122 15.2598 15.3477 17.05 15.3477 19.2551V23.3393C15.3477 25.5434 17.1223 27.3333 19.3154 27.3333H23.367C25.5591 27.3333 27.3334 25.5432 27.3334 23.3393V19.2551C27.3334 17.0502 25.5594 15.2598 23.367 15.2598ZM19.3154 17.1203H23.367C24.528 17.1203 25.4729 18.0739 25.4729 19.2551V23.3393C25.4729 24.5193 24.5278 25.4729 23.367 25.4729H19.3154C18.1534 25.4729 17.2082 24.5195 17.2082 23.3393V19.2551C17.2082 18.0738 18.1532 17.1203 19.3154 17.1203Z" fill="#90A4AE"/>
</svg>
