<svg width="24" height="28" viewBox="0 0 24 28" fill="none" xmlns="http://www.w3.org/2000/svg">
<path fill-rule="evenodd" clip-rule="evenodd" d="M12.0384 0.666754C5.89305 0.645876 0.873482 5.53516 0.672857 11.6552L0.666687 12.035C0.768832 15.0348 1.78945 17.8943 3.58706 20.2502L4.00925 20.8011C5.72509 22.9828 7.76417 24.8978 10.0537 26.4762L10.605 26.8472L10.6854 26.9104C11.4701 27.4742 12.5297 27.4742 13.3144 26.9104L13.3814 26.8554C15.1981 25.6772 16.8734 24.2929 18.374 22.7297C21.4248 19.5003 23.2636 15.8817 23.333 12.2067L23.3332 12.0702C23.354 5.90925 18.4798 0.874247 12.3786 0.672941L12.0384 0.666754ZM12.0316 2.69C17.0696 2.70722 21.16 6.7326 21.3119 11.7455L21.3162 12.1875C21.2578 15.2686 19.6446 18.4433 16.9155 21.3322C15.5239 22.7817 13.9637 24.0701 12.2714 25.166L12.1587 25.2508C12.0675 25.3298 11.9323 25.3298 11.8412 25.2508L11.7316 25.168C9.21065 23.5221 6.99811 21.4441 5.19517 19.029C3.74293 17.1256 2.88236 14.8499 2.70914 12.4759L2.68369 11.9999C2.7008 6.94966 6.71378 2.84668 11.7113 2.69433L12.0316 2.69ZM11.9999 7.86841C9.61541 7.86841 7.68237 9.80742 7.68237 12.1993C7.68237 14.5912 9.61541 16.5302 11.9999 16.5302C14.3845 16.5302 16.3175 14.5912 16.3175 12.1993C16.3175 9.80742 14.3845 7.86841 11.9999 7.86841ZM11.9999 9.89163C13.2705 9.89163 14.3005 10.9248 14.3005 12.1993C14.3005 13.4738 13.2705 14.5069 11.9999 14.5069C10.7294 14.5069 9.69938 13.4738 9.69938 12.1993C9.69938 10.9248 10.7294 9.89163 11.9999 9.89163Z" fill="#90A4AE"/>
</svg>
