<svg width="222" height="57" viewBox="0 0 222 57" fill="none" xmlns="http://www.w3.org/2000/svg">
<path d="M152.332 16C152.332 7.16344 159.496 0 168.332 0H205.332C214.169 0 221.332 7.16344 221.332 16V41C221.332 49.8366 214.169 57 205.332 57H168.332C159.496 57 152.332 49.8366 152.332 41V16Z" fill="#26C16E"/>
<path d="M6.498 20.302V25.926H15.58V30.828H6.498V36.794H16.72V42H0V15.134H16.72V20.302H6.498Z" fill="white"/>
<path d="M47.8842 20.568C50.4935 20.568 52.5455 21.3786 54.0402 23C55.5348 24.596 56.2822 26.8253 56.2822 29.688V42H49.8222V30.448C49.8222 29.1053 49.4548 28.0666 48.7202 27.332C48.0108 26.572 47.0355 26.192 45.7942 26.192C44.5022 26.192 43.4762 26.5973 42.7162 27.408C41.9815 28.1933 41.6142 29.308 41.6142 30.752V42H35.1162V30.448C35.1162 29.1053 34.7615 28.0666 34.0522 27.332C33.3428 26.572 32.3675 26.192 31.1262 26.192C29.8342 26.192 28.8082 26.5846 28.0482 27.37C27.2882 28.1553 26.9082 29.2826 26.9082 30.752V42H20.4102V20.796H26.9082V24.406C27.4655 23.2153 28.3142 22.278 29.4542 21.594C30.6195 20.91 31.9748 20.568 33.5202 20.568C35.1415 20.568 36.5728 20.948 37.8142 21.708C39.0555 22.4426 39.9928 23.5066 40.6262 24.9C41.3608 23.5826 42.3615 22.5313 43.6282 21.746C44.9202 20.9606 46.3388 20.568 47.8842 20.568Z" fill="white"/>
<path d="M73.8236 20.53C75.5716 20.53 77.1296 20.9733 78.4976 21.86C79.8909 22.7213 80.9803 23.9753 81.7656 25.622C82.5763 27.2433 82.9816 29.1686 82.9816 31.398C82.9816 33.602 82.5763 35.5273 81.7656 37.174C80.9803 38.8206 79.8909 40.0873 78.4976 40.974C77.1296 41.8353 75.5716 42.266 73.8236 42.266C72.2023 42.266 70.8089 41.8986 69.6436 41.164C68.4783 40.4293 67.6296 39.4286 67.0976 38.162V52.108H60.5996V20.796H67.0976V24.634C67.6296 23.3673 68.4783 22.3666 69.6436 21.632C70.8089 20.8973 72.2023 20.53 73.8236 20.53ZM71.7336 26.23C70.3656 26.23 69.2383 26.6986 68.3516 27.636C67.4903 28.548 67.0596 29.802 67.0596 31.398C67.0596 32.9686 67.4903 34.2226 68.3516 35.16C69.2383 36.0973 70.3656 36.566 71.7336 36.566C73.1269 36.566 74.2416 36.11 75.0776 35.198C75.9389 34.286 76.3696 33.0193 76.3696 31.398C76.3696 29.7766 75.9389 28.51 75.0776 27.598C74.2416 26.686 73.1269 26.23 71.7336 26.23Z" fill="white"/>
<path d="M92.8515 24.786C93.6622 23.494 94.7009 22.468 95.9675 21.708C97.2595 20.948 98.6528 20.568 100.148 20.568V27.522H98.2855C96.5629 27.522 95.2202 27.8893 94.2575 28.624C93.3202 29.3586 92.8515 30.6 92.8515 32.348V42H86.3535V20.796H92.8515V24.786Z" fill="white"/>
<path d="M123.007 30.828C123.007 31.36 122.944 31.9426 122.817 32.576H108.111C108.187 34.172 108.593 35.3246 109.327 36.034C110.062 36.718 110.999 37.06 112.139 37.06C113.102 37.06 113.9 36.8193 114.533 36.338C115.167 35.8566 115.585 35.236 115.787 34.476H122.665C122.387 35.9706 121.779 37.3133 120.841 38.504C119.904 39.6693 118.713 40.594 117.269 41.278C115.825 41.9366 114.217 42.266 112.443 42.266C110.366 42.266 108.517 41.8353 106.895 40.974C105.299 40.0873 104.045 38.8206 103.133 37.174C102.221 35.5273 101.765 33.602 101.765 31.398C101.765 29.1686 102.209 27.2433 103.095 25.622C104.007 23.9753 105.274 22.7213 106.895 21.86C108.517 20.9733 110.366 20.53 112.443 20.53C114.546 20.53 116.395 20.9606 117.991 21.822C119.587 22.6833 120.816 23.8993 121.677 25.47C122.564 27.0153 123.007 28.8013 123.007 30.828ZM116.433 29.84C116.459 28.4466 116.079 27.408 115.293 26.724C114.533 26.0146 113.583 25.66 112.443 25.66C111.253 25.66 110.265 26.0146 109.479 26.724C108.694 27.4333 108.251 28.472 108.149 29.84H116.433Z" fill="white"/>
<path d="M134.451 20.53C136.072 20.53 137.465 20.8973 138.631 21.632C139.796 22.3666 140.657 23.3673 141.215 24.634V20.796H147.675V41.886C147.675 43.862 147.295 45.6353 146.535 47.206C145.775 48.802 144.609 50.0686 143.039 51.006C141.468 51.9433 139.517 52.412 137.187 52.412C133.995 52.412 131.436 51.652 129.511 50.132C127.611 48.6373 126.471 46.598 126.091 44.014H132.513C132.715 44.8753 133.171 45.5466 133.881 46.028C134.615 46.5093 135.565 46.75 136.731 46.75C138.073 46.75 139.15 46.3573 139.961 45.572C140.797 44.812 141.215 43.5833 141.215 41.886V38.162C140.657 39.4286 139.796 40.4293 138.631 41.164C137.465 41.8986 136.072 42.266 134.451 42.266C132.703 42.266 131.132 41.8353 129.739 40.974C128.371 40.0873 127.281 38.8206 126.471 37.174C125.685 35.5273 125.293 33.602 125.293 31.398C125.293 29.1686 125.685 27.2433 126.471 25.622C127.281 23.9753 128.371 22.7213 129.739 21.86C131.132 20.9733 132.703 20.53 134.451 20.53ZM136.541 26.23C135.147 26.23 134.02 26.686 133.159 27.598C132.323 28.51 131.905 29.7766 131.905 31.398C131.905 33.0193 132.323 34.286 133.159 35.198C134.02 36.11 135.147 36.566 136.541 36.566C137.909 36.566 139.023 36.0973 139.885 35.16C140.771 34.2226 141.215 32.9686 141.215 31.398C141.215 29.802 140.771 28.548 139.885 27.636C139.023 26.6986 137.909 26.23 136.541 26.23Z" fill="white"/>
<path d="M182.123 37.098H172.053L170.381 42H163.541L173.383 15.324H180.869L190.711 42H183.795L182.123 37.098ZM180.451 32.158L177.107 22.278L173.725 32.158H180.451Z" fill="white"/>
<path d="M200.457 20.796V42H193.959V20.796H200.457ZM202.661 15.362L193.503 19.276V14.868L202.661 10.46V15.362Z" fill="white"/>
</svg>
