<svg width="18" height="22" viewBox="0 0 18 22" fill="none" xmlns="http://www.w3.org/2000/svg">
<path d="M13.3333 5.58333C13.3333 6.73261 12.8767 7.83481 12.0641 8.64746C11.2514 9.46012 10.1492 9.91667 8.99996 9.91667C7.85069 9.91667 6.74849 9.46012 5.93583 8.64746C5.12317 7.83481 4.66663 6.73261 4.66663 5.58333C4.66663 4.43406 5.12317 3.33186 5.93583 2.5192C6.74849 1.70655 7.85069 1.25 8.99996 1.25C10.1492 1.25 11.2514 1.70655 12.0641 2.5192C12.8767 3.33186 13.3333 4.43406 13.3333 5.58333V5.58333ZM8.99996 13.1667C6.98873 13.1667 5.05988 13.9656 3.63773 15.3878C2.21558 16.8099 1.41663 18.7388 1.41663 20.75H16.5833C16.5833 18.7388 15.7843 16.8099 14.3622 15.3878C12.94 13.9656 11.0112 13.1667 8.99996 13.1667V13.1667Z" stroke="#26C16E" stroke-width="2" stroke-linecap="round" stroke-linejoin="round"/>
</svg>
