<svg width="22" height="28" viewBox="0 0 22 28" fill="none" xmlns="http://www.w3.org/2000/svg">
<path fill-rule="evenodd" clip-rule="evenodd" d="M11.0057 0.666687C7.09367 0.666687 3.92234 3.85154 3.92234 7.78025C3.92234 11.709 7.09367 14.8938 11.0057 14.8938C14.9177 14.8938 18.0891 11.709 18.0891 7.78025C18.0891 3.85154 14.9177 0.666687 11.0057 0.666687ZM11.0057 2.59692C13.8562 2.59692 16.167 4.91758 16.167 7.78026C16.167 10.6429 13.8562 12.9636 11.0057 12.9636C8.15519 12.9636 5.84438 10.6429 5.84438 7.78026C5.84438 4.91758 8.15519 2.59692 11.0057 2.59692ZM8.10671 17.7612C7.06975 17.8332 6.02159 17.9812 4.98771 18.2028C2.99221 18.6138 1.39578 19.4351 0.716298 20.7998C0.460016 21.3336 0.331166 21.9051 0.33334 22.4836C0.332571 23.058 0.460378 23.6302 0.70747 24.1537C1.3599 25.5028 2.77038 26.2662 4.67497 26.6894L5.01615 26.7606C6.02196 26.9876 7.07044 27.1403 8.12593 27.2121C8.21583 27.2384 8.43008 27.2629 8.66393 27.2749L8.85627 27.2821C8.95517 27.2844 9.06742 27.2849 9.23465 27.2849C10.7518 27.3684 12.3245 27.3441 13.89 27.2108C14.7242 27.1537 15.5641 27.0446 16.397 26.8848L17.0201 26.7554C19.0767 26.3497 20.6167 25.5781 21.2914 24.1552C21.7916 23.0988 21.7916 21.8729 21.2917 20.817C20.6187 19.3977 19.0982 18.6325 17.0045 18.2012C16.183 18.0258 15.3482 17.8961 14.5075 17.8132L13.8929 17.7612C11.9679 17.5914 10.0317 17.5914 8.10671 17.7612ZM13.7247 19.684L13.7416 19.6854C14.7065 19.7533 15.6655 19.8887 16.6115 20.0907C18.1668 20.4111 19.2222 20.9422 19.5561 21.6464C19.8075 22.1774 19.8075 22.7944 19.5559 23.3259C19.2439 23.9838 18.296 24.4922 16.926 24.8028L16.626 24.8664C15.6613 25.0816 14.7055 25.2203 13.7434 25.2863C12.2506 25.4132 10.7666 25.4362 9.28634 25.3561L8.76154 25.3471C8.61585 25.3397 8.49307 25.3256 8.37928 25.3028C7.47828 25.2348 6.66754 25.1272 5.88034 24.9711L5.41032 24.8716C3.85026 24.5659 2.78552 24.0324 2.4403 23.3186C2.31951 23.0626 2.25498 22.7738 2.25537 22.4813C2.25429 22.1904 2.31796 21.908 2.44156 21.6505C2.77722 20.9766 3.90558 20.3961 5.38139 20.0921C6.3343 19.8879 7.29281 19.7525 8.25723 19.6854C10.088 19.5241 11.9116 19.5241 13.7247 19.684Z" fill="#90A4AE"/>
</svg>
