<svg width="28" height="28" viewBox="0 0 28 28" fill="none" xmlns="http://www.w3.org/2000/svg">
<path fill-rule="evenodd" clip-rule="evenodd" d="M13.4821 0.666687C6.40433 0.666687 0.666687 6.27761 0.666687 13.199C0.666687 20.1205 6.40433 25.7314 13.4821 25.7314C16.5092 25.7314 19.2912 24.705 21.484 22.9887L25.6494 27.0516L25.7602 27.1449C26.147 27.4247 26.6953 27.3929 27.0452 27.0498C27.4301 26.6724 27.4293 26.0613 27.0434 25.6848L22.9269 21.6698C25.0199 19.4392 26.2975 16.465 26.2975 13.199C26.2975 6.27761 20.5598 0.666687 13.4821 0.666687ZM13.4821 2.59702C19.4696 2.59702 24.3235 7.34371 24.3235 13.199C24.3235 19.0544 19.4696 23.8011 13.4821 23.8011C7.49448 23.8011 2.64059 19.0544 2.64059 13.199C2.64059 7.34371 7.49448 2.59702 13.4821 2.59702Z" fill="#90A4AE"/>
</svg>
